PathFileType	4	(X/Y/Z)	Kaydara	
DataRate	CameraRate	NumFrames	NumMarkers	Units	OrigDataRate	OrigDataStartFrame	OrigNumFrames	
60.00	60.00	4	74	mm	60.00	380	98	
Frame#	Time	Y_rasi			Y_rpsi			Y_lpsi			Y_fneck			Y_bneck			Y_fhead			Y_rhead			Y_rshld			Y_relbtop			Y_relbext			Y_relblow			Y_rwrext			Y_rwrtop			Y_rwrlow			Y_lshld			Y_lelbext			Y_lelblow			Y_lelbtop			Y_lwrext			Y_lwrtop			Y_lwrlow			Y_rtopleg			Y_ltopleg			Y_rkneefr			Y_rkneebk			Y_rkneeis			Y_lkneefr			Y_lknssbk			Y_lkneeis			Y_rankfr			Y_rankis			Y_rankbk			Y_lankfr			Y_lankbk			Y_lankis			Y_lhead			Y_lasi			D_rpsi			D_lpsi			D_fneck			D_bneck			D_fhead			D_rhead			D_lhead			D_rshld			D_relbtop			D_relbext			D_relblow			D_rwrext			D_rwrtop			D_rwrlow			D_lshld			D_lelbext			D_lelblow			D_lelbtop			D_lwrext			D_lwrtop			D_lwrlow			D_rtopleg			D_ltopleg			D_rkneefr			D_rkneebk			D_rkneeis			D_lkneefr			D_lknssbk			D_lkneeis			D_rankfr			D_rankis			D_rankbk			D_lankfr			D_lankbk			D_lankis			D_lasi			D_rasi			
		X1	Y1	Z1	X2	Y2	Z2	X3	Y3	Z3	X4	Y4	Z4	X5	Y5	Z5	X6	Y6	Z6	X7	Y7	Z7	X8	Y8	Z8	X9	Y9	Z9	X10	Y10	Z10	X11	Y11	Z11	X12	Y12	Z12	X13	Y13	Z13	X14	Y14	Z14	X15	Y15	Z15	X16	Y16	Z16	X17	Y17	Z17	X18	Y18	Z18	X19	Y19	Z19	X20	Y20	Z20	X21	Y21	Z21	X22	Y22	Z22	X23	Y23	Z23	X24	Y24	Z24	X25	Y25	Z25	X26	Y26	Z26	X27	Y27	Z27	X28	Y28	Z28	X29	Y29	Z29	X30	Y30	Z30	X31	Y31	Z31	X32	Y32	Z32	X33	Y33	Z33	X34	Y34	Z34	X35	Y35	Z35	X36	Y36	Z36	X37	Y37	Z37	X38	Y38	Z38	X39	Y39	Z39	X40	Y40	Z40	X41	Y41	Z41	X42	Y42	Z42	X43	Y43	Z43	X44	Y44	Z44	X45	Y45	Z45	X46	Y46	Z46	X47	Y47	Z47	X48	Y48	Z48	X49	Y49	Z49	X50	Y50	Z50	X51	Y51	Z51	X52	Y52	Z52	X53	Y53	Z53	X54	Y54	Z54	X55	Y55	Z55	X56	Y56	Z56	X57	Y57	Z57	X58	Y58	Z58	X59	Y59	Z59	X60	Y60	Z60	X61	Y61	Z61	X62	Y62	Z62	X63	Y63	Z63	X64	Y64	Z64	X65	Y65	Z65	X66	Y66	Z66	X67	Y67	Z67	X68	Y68	Z68	X69	Y69	Z69	X70	Y70	Z70	X71	Y71	Z71	X72	Y72	Z72	X73	Y73	Z73	X74	Y74	Z74	

13	6.317	-589.44447	1096.32164	-123.50817	-571.07597	1074.15329	-304.61660	-350.75497	1059.45480	-219.80637	-490.02090	1442.16324	-153.96169	-406.01242	1482.98981	-236.70383	-523.82149	1648.74741	-96.20390	-496.11290	1579.97101	-259.91062	-630.37781	1426.68442	-269.04913	-676.51489	1115.26138	-259.75285	-706.09146	1123.61855	-310.55704	-644.75418	1100.82520	-337.44606	-695.74036	875.54657	-167.58417	-712.34734	901.30325	-136.79338	-677.34840	920.31776	-117.17202	-281.42269	1387.19009	-95.27007	-255.27225	1070.97977	-60.75132	-288.23919	1058.10562	-108.22851	-318.24886	1095.26077	-34.23778	-409.46201	863.70255	12.39035	-430.10715	885.36972	41.44391	-460.19131	906.72287	14.86225	-651.13449	919.64897	-266.34762	-322.75055	906.99631	-107.34344	-663.43491	411.82629	-255.07339	-641.26205	460.11925	-327.57202	-569.77795	420.74059	-241.04763	-358.78426	477.82578	-86.76897	-294.89384	498.37994	-179.78659	-415.46898	468.89442	-163.65974	-640.07805	144.20378	-321.69109	-569.91962	140.88412	-332.64717	-609.37706	145.24857	-387.14634	-281.32452	134.16559	-161.74444	-265.52128	138.07487	-230.26571	-337.59785	128.24071	-198.92227	-378.02197	1567.97943	-162.89213	-437.13646	1081.14517	-65.75585	-886.65573	1169.39796	640.93300	-1043.51952	1190.04311	556.75484	-860.06256	1606.24893	521.56353	-937.18155	1652.63824	606.83178	-831.63528	1797.04742	400.69374	-844.42207	1799.36584	580.50697	-975.58815	1793.82202	500.58907	-745.29060	1556.39847	631.63704	-722.49290	1183.42857	607.09297	-660.32303	1197.25098	630.76576	-712.35802	1184.49478	689.99687	-645.00061	903.15681	588.00697	-633.35304	911.87637	548.81512	-674.64684	918.24806	524.29943	-1101.08788	1568.41934	489.42078	-1126.85043	1199.11720	406.79363	-1103.08006	1173.72841	475.61871	-1063.05199	1207.09061	407.40376	-1054.22928	958.01743	350.42046	-1033.65952	981.37680	317.05170	-993.13675	984.24850	340.42526	-779.15581	1028.35220	616.04530	-1085.41588	1032.30286	434.91196	-808.97163	555.11822	516.14826	-805.95779	556.53442	628.43151	-916.29486	548.11848	565.75340	-972.92435	474.77486	323.55659	-1055.22560	520.58460	385.38277	-962.86758	498.56182	435.99083	-825.76324	189.72149	562.58675	-902.50488	187.76852	551.73210	-871.44569	177.88090	630.94196	-1051.92627	172.12467	403.40366	-1069.82056	173.83242	481.18233	-987.64320	170.82928	433.62045	-974.35486	1194.09264	409.49139	-787.10739	1176.22169	495.91797 
14	6.333	-589.45305	1096.76590	-123.14609	-571.42189	1074.72649	-304.07053	-351.02863	1059.69421	-219.79185	-489.84161	1442.61429	-154.34831	-405.39452	1482.95090	-237.07844	-522.61261	1649.84299	-97.32842	-495.06878	1580.39352	-260.89773	-629.89559	1426.86920	-270.24082	-677.70988	1113.77625	-259.64291	-706.72165	1123.52081	-310.39719	-644.98795	1100.95192	-336.56902	-703.46687	865.32631	-184.13919	-719.37637	889.34853	-151.58323	-684.11972	905.58762	-130.28822	-280.82485	1386.74255	-95.52584	-255.96123	1070.62889	-62.27613	-290.59162	1058.33946	-108.74207	-317.56012	1092.49901	-32.98589	-388.92242	851.71844	12.10870	-411.31226	870.03342	40.08245	-444.08592	889.42146	15.82934	-651.89407	920.05150	-266.39307	-322.93133	907.35199	-107.54715	-664.15817	412.26879	-254.30920	-641.97731	460.66673	-326.84315	-570.32585	421.30714	-240.50182	-358.39382	478.04077	-86.75767	-294.96143	498.70216	-180.18991	-415.48588	469.29657	-163.96017	-640.36095	144.69826	-321.68503	-570.16979	141.51956	-332.52365	-609.77539	145.79754	-386.97361	-281.42269	134.47370	-161.63361	-265.52851	138.35511	-230.24244	-337.59457	128.44646	-198.81413	-377.12326	1567.91016	-164.14442	-437.34734	1081.62369	-65.51244	-886.78467	1169.36867	639.51504	-1043.41156	1189.85947	554.84547	-861.13235	1606.52206	521.94393	-938.67950	1652.23953	607.08252	-833.05672	1797.54776	402.18845	-845.96832	1799.39590	581.39469	-977.24632	1793.57025	501.39603	-746.62933	1557.04575	631.82419	-722.59171	1184.13910	609.41422	-660.39223	1198.35999	632.43969	-711.92299	1185.96581	692.36687	-644.58046	903.73474	592.20127	-633.93459	912.12616	552.87941	-675.46844	918.22052	529.05540	-1101.79565	1568.38318	488.48995	-1126.30074	1199.04350	405.58823	-1102.71240	1173.81813	474.69242	-1062.59621	1206.87088	406.19659	-1055.13626	957.37091	350.39528	-1034.48547	980.19081	316.57608	-993.80951	983.18115	340.36095	-778.67760	1028.54881	614.99676	-1084.90959	1031.64032	433.58574	-809.67445	554.53892	516.76292	-806.51276	556.28063	629.15226	-916.69861	548.05077	566.00666	-976.24191	472.04166	332.32792	-1058.31009	517.98870	394.25026	-965.64072	496.04893	444.54681	-825.85640	189.76458	562.97333	-902.56218	187.62178	551.94668	-871.75827	177.81548	631.23741	-1052.57446	168.13969	406.89625	-1070.20042	168.58213	484.66789	-988.10097	166.96650	436.89266	-973.73802	1194.06746	407.91340	-786.77002	1176.46317	494.82937 
15	6.350	-589.50256	1097.28554	-122.79722	-571.78890	1075.17311	-303.69055	-350.61363	1059.99550	-220.03395	-489.50348	1442.77313	-154.81723	-404.72469	1482.89749	-237.29771	-521.66119	1650.55649	-98.12876	-494.18056	1580.77835	-261.83880	-629.25823	1426.97021	-271.65960	-678.78891	1112.28317	-259.51208	-707.43370	1123.39188	-310.11868	-645.18608	1101.09589	-335.52513	-710.15816	856.35422	-201.54434	-726.48163	878.06488	-167.60073	-691.56250	892.12372	-144.29934	-280.49587	1386.08154	-95.55113	-256.50705	1070.23117	-63.36606	-292.79716	1058.37837	-109.11077	-316.79478	1089.55040	-31.73850	-371.35361	839.04083	1.56013	-390.69019	855.85976	37.01051	-426.43448	873.38417	14.94245	-652.28439	920.44609	-265.98848	-323.16204	907.52228	-107.63957	-664.77051	412.79953	-253.79351	-642.44324	461.04599	-326.45641	-570.79327	421.71162	-240.14761	-358.42793	478.37437	-87.01199	-294.97971	499.01665	-180.79969	-415.62302	469.59587	-164.42980	-640.68687	145.01474	-321.61072	-569.94236	142.15044	-332.79667	-610.11032	146.24018	-386.97720	-281.48445	134.76071	-161.63628	-265.59895	138.44773	-230.28515	-337.68833	128.63674	-198.79232	-375.78781	1567.66006	-165.22343	-437.35176	1082.01714	-65.40709	-887.22519	1169.28764	638.05298	-1043.41293	1189.44641	552.63580	-862.33490	1606.74637	522.22378	-940.48126	1651.87469	607.22828	-834.63753	1798.14331	402.64103	-847.93312	1799.33395	582.36576	-978.92853	1793.60092	502.14001	-748.18794	1557.74933	632.24648	-723.45894	1184.86702	611.74164	-660.68581	1199.43481	633.98483	-711.43272	1187.31270	694.51576	-644.53667	904.50211	595.88985	-634.39186	912.41180	556.24561	-676.60156	918.12622	533.26702	-1102.67418	1568.19931	487.12223	-1125.82672	1198.83919	404.14360	-1102.48329	1173.79089	473.36708	-1062.20314	1206.40450	405.10086	-1055.94086	956.50993	350.02396	-1035.24422	979.17114	316.28250	-994.57733	981.87073	339.61422	-778.73589	1028.70613	613.80165	-1084.61403	1030.93910	432.14806	-809.72763	554.24137	516.88118	-806.96472	556.29765	629.33182	-917.03506	547.90565	565.79624	-979.53445	469.39972	340.87341	-1061.25740	515.75539	403.07205	-968.93631	493.85509	453.30544	-825.83641	189.75975	563.40000	-902.34703	187.59193	551.92039	-872.00195	177.77660	631.38165	-1052.33620	164.85857	409.52560	-1069.95255	163.59449	487.35596	-987.75642	163.89078	439.68239	-973.11119	1193.97141	406.09207	-786.45180	1176.60233	493.81626 
16	6.367	-589.57256	1097.68631	-122.51395	-572.12769	1075.37704	-303.43063	-351.31935	1059.94461	-220.28599	-489.19041	1442.69196	-155.27061	-404.13311	1482.69806	-237.54055	-520.60234	1650.76752	-98.60832	-493.26393	1581.03149	-262.00861	-628.58082	1426.88934	-273.17251	-680.53635	1110.90714	-259.35125	-708.13187	1123.13797	-310.18818	-645.25650	1101.08742	-334.44542	-715.89058	848.86337	-219.32846	-733.45139	868.12599	-184.48366	-699.65195	880.37277	-158.84226	-280.22451	1385.03571	-95.38002	-256.49841	1069.61349	-64.48839	-294.28562	1058.00331	-109.36635	-315.70581	1086.38000	-30.93326	-350.48836	828.95218	-5.09301	-369.33914	843.55042	31.91881	-407.50580	858.87726	12.79858	-652.77077	920.71335	-265.52456	-323.77590	907.51411	-107.34380	-664.74464	412.89127	-253.80817	-642.71584	461.25248	-326.34117	-571.12877	421.86150	-240.12974	-358.90377	478.82740	-87.36203	-295.05157	499.25835	-181.41956	-415.62958	469.85851	-165.03187	-640.87517	145.18712	-321.70280	-569.88739	142.39034	-333.07583	-610.28820	146.31734	-387.08519	-281.61077	134.97516	-161.68423	-265.71304	138.49892	-230.36188	-337.81342	128.78054	-198.81666	-375.28774	1567.60284	-165.21576	-437.23602	1082.35191	-65.47292	-887.83127	1169.29550	636.69758	-1043.59116	1189.36630	550.47508	-863.88168	1607.30103	522.44698	-942.40021	1651.99707	607.17720	-836.18423	1799.34067	403.49758	-849.86832	1799.91058	582.98206	-980.73547	1794.19189	502.39994	-749.86343	1558.48282	632.71416	-724.09660	1185.50293	613.61877	-661.11603	1200.35561	635.20966	-711.50940	1188.55980	696.23978	-644.14619	905.34309	598.93829	-634.98699	912.88239	559.17976	-677.57950	918.46359	536.77795	-1103.63441	1568.01498	485.50941	-1125.68214	1198.57971	402.44911	-1102.57019	1173.56506	471.79989	-1062.11685	1205.93773	403.09059	-1057.03720	955.74730	349.51111	-1036.00014	977.98981	315.73009	-995.32516	980.60234	339.66473	-779.15466	1028.96866	612.58141	-1084.71397	1030.71327	430.61115	-809.97917	554.13349	516.62586	-807.63275	556.48537	628.88275	-917.56859	547.92225	565.14030	-981.37985	467.62108	347.67208	-1063.02490	514.50310	410.36480	-972.16492	492.71324	460.54806	-825.93872	189.91705	563.63708	-902.49931	187.65409	551.95667	-872.34108	177.94893	631.51665	-1052.27310	163.44826	411.84887	-1069.20128	161.21422	489.69372	-987.41035	162.50246	441.91856	-972.51900	1193.96423	404.26971	-786.30074	1176.73622	492.72476 
